inDegrees=no
num_controls=7
num_derivatives=13
num_iterations=151
num_multipliers=7
num_parameters=0
num_slacks=7
num_states=26
objective=0.502701
objective_accelerations=0.042654
objective_balance=0.004449
objective_effort=0.033897
objective_height=0.309831
objective_ligament=0.111870
solver_duration=1983.297132
status=Solve_Succeeded
success=true
DataType=double
version=3
OpenSimVersion=4.5
endheader
time	/jointset/ground_pelvis/pelvis_tilt/value	/jointset/ground_pelvis/pelvis_tx/value	/jointset/ground_pelvis/pelvis_ty/value	/jointset/hip_l/hip_flexion_l/value	/jointset/hip_l/hip_adduction_l/value	/jointset/hip_l/hip_rotation_l/value	/jointset/back/lumbar_extension/value	/jointset/patellofemoral_l/patellar_flexion_l/value	/jointset/knee_l/knee_flexion_l/value	/jointset/knee_l/knee_adduction_l/value	/jointset/knee_l/knee_rotation_l/value	/jointset/ankle_l/ankle_angle_l/value	/jointset/subtalar_l/subtalar_angle_l/value	/jointset/ground_pelvis/pelvis_tilt/speed	/jointset/ground_pelvis/pelvis_tx/speed	/jointset/ground_pelvis/pelvis_ty/speed	/jointset/hip_l/hip_flexion_l/speed	/jointset/hip_l/hip_adduction_l/speed	/jointset/hip_l/hip_rotation_l/speed	/jointset/back/lumbar_extension/speed	/jointset/patellofemoral_l/patellar_flexion_l/speed	/jointset/knee_l/knee_flexion_l/speed	/jointset/knee_l/knee_adduction_l/speed	/jointset/knee_l/knee_rotation_l/speed	/jointset/ankle_l/ankle_angle_l/speed	/jointset/subtalar_l/subtalar_angle_l/speed	/forceset/tau_hip_flexion_l	/forceset/tau_hip_adduction_l	/forceset/tau_hip_rotation_l	/forceset/tau_knee_flexion_l	/forceset/tau_ankle_angle_l	/forceset/tau_subtalar_angle_l	/forceset/tau_lumbar_extension	lambda_cid13_p0	lambda_cid13_p1	lambda_cid13_p2	lambda_cid13_p3	lambda_cid13_p4	lambda_cid13_p5	lambda_cid14_p0	/jointset/ground_pelvis/pelvis_tilt/accel	/jointset/ground_pelvis/pelvis_tx/accel	/jointset/ground_pelvis/pelvis_ty/accel	/jointset/hip_l/hip_flexion_l/accel	/jointset/hip_l/hip_adduction_l/accel	/jointset/hip_l/hip_rotation_l/accel	/jointset/back/lumbar_extension/accel	/jointset/patellofemoral_l/patellar_flexion_l/accel	/jointset/knee_l/knee_flexion_l/accel	/jointset/knee_l/knee_adduction_l/accel	/jointset/knee_l/knee_rotation_l/accel	/jointset/ankle_l/ankle_angle_l/accel	/jointset/subtalar_l/subtalar_angle_l/accel	gamma_cid13_p0	gamma_cid13_p1	gamma_cid13_p2	gamma_cid13_p3	gamma_cid13_p4	gamma_cid13_p5	gamma_cid14_p0
1	-0.2480068303302652	-0.1085225019770311	0.6837455423574292	1.456636403530104	-0.3298195764810114	0.04067114657865021	-0.9599019595393232	1.248093731524631	1.248093731524655	-0.09317347357871779	-0.1744861051155377	0.1210524116992267	0.00130711233746738	0.09134597171171176	0.01828142811196025	0.07035165879673112	-0.2794038609384676	-0.001120786402063949	-0.07054558680767496	0.0003703385401355049	-0.174998346359014	-0.1749983463590037	0.004323361735247895	0.002841432824223656	0.003774441716590124	0.001130344592823997	-0.4683670618266028	0.0248261381820031	-0.002667005698003686	-0.2662685821298883	0.08940760295147025	0.03083789173306352	0.4672974624766426	-22.77375984275525	-8.985771241836719	0.4989807152130286	15.22948966234868	-796.9647455038589	-53.08261328218877	-0.4366543901486211	1.439134428261791	0.04055289104391681	1.449022100299126	-5.32453669274669	0.03179592282448482	-1.860635285104255	-0.07361476218744858	-4.468386158422949	-4.468386158422988	0.2377703774936612	0.08752601722600678	-0.8470148072117624	-0.234453925291701	-1.328413851667929e-08	-1.036950353625461e-08	7.045078066582695e-08	8.281037719980642e-09	-2.428725248760733e-08	8.337769509518882e-08	-1.709695754925693e-08
1.01	-0.2470217823575231	-0.1083375888432058	0.6845213650994069	1.453576805753989	-0.3298282798923753	0.0398722360441378	-0.9599012325793805	1.246120520710431	1.246120520710421	-0.09311663233508827	-0.174452335067987	0.1210479823959014	0.001307794812556416	0.1056757529363322	0.01871104650465058	0.084809354482732	-0.3325290322366332	-0.0006002751449086021	-0.08922014751042302	-0.0002129240127531474	-0.219650613456576	-0.2196506134565207	0.007048304453661052	0.003929753942015519	-0.004661794917364672	-0.0009724371663312984	-0.4677855041038136	0.02504031026382348	-0.002710435933016962	-0.2661818189154809	0.0896295519087854	0.0309616665950873	0.4671843287458076	-22.68359706701036	-9.05953734400528	0.515565660549298	14.99680255802086	-796.8486922902855	-53.18786642759638	-0.4572299355655058	1.431717640299839	0.04564656103424437	1.443606757962646	-5.308510783635384	0.06511490502643785	-1.868428956185631	-0.04887862187072724	-4.464662184938729	-4.464662184931916	0.2903588309771745	0.1220829306994863	-0.842152590593847	-0.1949861331624324	-1.966033817611484e-08	-1.778090783990706e-08	9.058989092524415e-08	1.527685113686654e-08	-3.13163175052419e-08	9.694971530822177e-08	-2.168689489568524e-08
1.02	-0.2458930730383913	-0.1081480834759233	0.6854416574892872	1.449985555577831	-0.329831190955597	0.03888706740395094	-0.9599059775689154	1.243700584185352	1.243700584185315	-0.09303244114188766	-0.1744071622548978	0.1209591458264149	0.001288090303666967	0.1200782409904664	0.01919987480341676	0.09924558837727034	-0.3857343409461563	3.768322685023189e-05	-0.1077972079461876	-0.0007240513668743966	-0.2643434885347729	-0.2643434885346709	0.009793351650551591	0.005121985925548485	-0.01310701151557742	-0.002947052202889383	-0.467203946381026	0.0252544823456658	-0.00275386616817812	-0.2660950557010704	0.08985150086610952	0.03108544145714124	0.4670711950149666	-22.60341716054828	-9.129952189810684	0.5297849802742719	14.81500468159702	-796.8599837115594	-53.27623233220381	-0.4830901069042081	1.453675794164384	0.05239487225923364	1.444729742006651	-5.340564175018239	0.05528534574507449	-1.841135231707635	-0.05918772243396615	-4.476507754549855	-4.476507754549576	0.241791273189074	0.1083081903740285	-0.8488108000631154	-0.2088205807722981	-2.509692172849085e-08	-2.709058300166183e-08	1.097985049155008e-07	1.962628979438604e-08	-3.784421948623918e-08	1.094868431323489e-07	-2.641026164475348e-08
1.03	-0.2446200028409134	-0.107953283028665	0.6865062297525786	1.445861708450288	-0.3298271172910587	0.03771665967755434	-0.9599149379945593	1.240833445174746	1.240833445174678	-0.09292076196725323	-0.1743495688462852	0.1207859160077663	0.001249337719578002	0.1345464591895039	0.01978129290651958	0.1136681133510155	-0.4390649255296272	0.0007986402024235411	-0.1262666190716329	-0.00100376234982125	-0.3090988964347304	-0.3090988964347091	0.01254232966368872	0.00641121240075444	-0.02152984663444782	-0.004776046406928668	-0.4670239407451733	0.02553079361262384	-0.002815959229716117	-0.2659255899765075	0.09039379615842257	0.03128298447383304	0.467562678945977	-22.42806474741359	-9.252043521912134	0.5556410196263718	14.34353665511767	-797.1818225472408	-53.42028654252352	-0.5146607950950979	1.444991509235923	0.06418183442826469	1.440892322713982	-5.333785483568058	0.0897292436942777	-1.847213215796729	-0.002722074534710232	-4.477238479205643	-4.477238479217927	0.2914129590681811	0.1414373158965236	-0.837655626197838	-0.1658352609952429	-3.052391736140707e-08	-3.641962827421357e-08	1.289976240458681e-07	2.394872462783037e-08	-4.436700755869935e-08	1.220134108300586e-07	-3.113498991833844e-08
